<svg width="16" height="16" viewBox="0 0 16 16" xmlns="http://www.w3.org/2000/svg">
<path d="M14.8998 13.4999C15.0998 13.6999 15.1998 13.8999 15.1998 14.1999C15.1998 14.4999 15.0998 14.6999 14.8998 14.8999C14.6998 15.0999 14.4998 15.1999 14.1998 15.1999C13.8998 15.1999 13.6998 15.0999 13.4998 14.8999L7.9998 9.39993L2.4998 14.8999C2.2998 15.0999 2.0998 15.1999 1.7998 15.1999C1.4998 15.1999 1.2998 15.0999 1.0998 14.8999C0.899804 14.6999 0.799805 14.4999 0.799805 14.1999C0.799805 13.8999 0.899804 13.6999 1.0998 13.4999L6.5998 7.99993L1.0998 2.49993C0.999804 2.29993 0.899805 2.09993 0.899805 1.79993C0.899805 1.49993 0.999804 1.29993 1.1998 1.09993C1.5998 0.699927 2.1998 0.699927 2.5998 1.09993L8.0998 6.59993L13.5998 1.09993C13.7998 0.899927 13.9998 0.799927 14.2998 0.799927C14.5998 0.799927 14.7998 0.899927 14.9998 1.09993C15.1998 1.29993 15.2998 1.49993 15.2998 1.79993C15.2998 2.09993 14.9998 2.29993 14.8998 2.49993L9.3998 7.99993L14.8998 13.4999Z" />
</svg>