<svg width="19" height="21" viewBox="0 0 19 21" xmlns="http://www.w3.org/2000/svg">
<circle cx="9.52834" cy="6.30421" r="1.056" stroke="currentColor" stroke-width="1.056"/>
<path d="M1.26931 9.3138C1.23167 8.84581 1.41856 8.38776 1.77285 8.07968L8.55815 2.17942C9.11443 1.6957 9.94206 1.6957 10.4983 2.17942L17.2836 8.07968C17.6379 8.38776 17.8248 8.84581 17.7872 9.3138L17.2129 16.4547C17.1512 17.2228 16.5098 17.8146 15.7393 17.8146H3.31722C2.54668 17.8146 1.90534 17.2228 1.84358 16.4547L1.26931 9.3138Z" stroke="currentColor" stroke-width="1.2672"/>
<line x1="4.45196" y1="17.8939" x2="4.45196" y2="19.9262" stroke="currentColor" stroke-width="1.2672" stroke-linecap="round"/>
<line x1="14.2562" y1="17.8939" x2="14.2562" y2="19.9262" stroke="currentColor" stroke-width="1.2672" stroke-linecap="round"/>
<path d="M11.996 17.262V12.7748C11.996 11.6084 11.0504 10.6628 9.88397 10.6628H9.20526C8.03884 10.6628 7.09326 11.6084 7.09326 12.7748V17.262" stroke="currentColor" stroke-width="1.2672"/>
</svg>
