<svg width="20" height="22" viewBox="0 0 20 22" xmlns="http://www.w3.org/2000/svg">
<path d="M10.8212 12.6921L12.5902 7.56218C13.3232 5.4364 14.6768 3.60568 16.4719 2.31204C16.916 1.99203 17.5484 2.23499 17.6937 2.78141C18.2811 4.99031 18.203 7.31104 17.47 9.43682L15.701 14.5667C14.968 16.6925 13.6144 18.5232 11.8193 19.8169C11.3752 20.1369 10.7428 19.8939 10.5975 19.3475C10.0101 17.1386 10.0882 14.8179 10.8212 12.6921Z" stroke="currentColor" stroke-width="1.056"/>
<line x1="0.528" y1="-0.528" x2="3.9011" y2="-0.528" transform="matrix(0.325819 -0.944844 0.934052 0.358829 15.4014 9.17725)" stroke="currentColor" stroke-width="1.056" stroke-linecap="round"/>
<line y1="-0.528" x2="5.30597" y2="-0.528" transform="matrix(0.934052 0.358829 -0.325819 0.944844 10.9849 12.219)" stroke="currentColor" stroke-width="1.056"/>
<line y1="-0.528" x2="5.30597" y2="-0.528" transform="matrix(0.934052 0.358829 -0.325818 0.944844 9.90088 15.3586)" stroke="currentColor" stroke-width="1.056"/>
<path d="M9.61825 9.31183L7.84926 14.4417C7.11621 16.5675 5.76265 18.3982 3.96752 19.6919C3.52345 20.0119 2.89101 19.7689 2.74572 19.2225C2.15839 17.0136 2.23641 14.6929 2.96946 12.5671L4.73844 7.43719C5.47149 5.31141 6.82506 3.48069 8.62019 2.18705C9.06426 1.86704 9.6967 2.11 9.84199 2.65642C10.4293 4.86532 10.3513 7.18605 9.61825 9.31183Z" stroke="currentColor" stroke-width="1.056"/>
<path d="M10.146 7.76575L8.02874 5.76758L5.18995 5.86181" stroke="currentColor" stroke-width="1.056"/>
<path d="M7.2636 16.1369L4.42481 16.2311L2.30755 14.233" stroke="currentColor" stroke-width="1.056"/>
<path d="M7.98577 14.0445L5.14698 14.1387L3.02972 12.1406" stroke="currentColor" stroke-width="1.056"/>
</svg>
