<svg width="24" height="18" viewBox="0 0 24 18"  xmlns="http://www.w3.org/2000/svg">
<path d="M7.8222 0.178589C7.27346 0.178589 6.73009 0.286671 6.22313 0.496664C5.71616 0.706657 5.25552 1.01445 4.8675 1.40246C4.47948 1.79048 4.17169 2.25112 3.9617 2.75809C3.75171 3.26506 3.64362 3.80842 3.64362 4.35716C3.64362 4.9059 3.75171 5.44926 3.9617 5.95623C4.17169 6.4632 4.47948 6.92384 4.8675 7.31186C5.25552 7.69987 5.71616 8.00766 6.22313 8.21766C6.73009 8.42765 7.27346 8.53573 7.8222 8.53573C8.93042 8.53573 9.99326 8.09549 10.7769 7.31186C11.5605 6.52822 12.0008 5.46539 12.0008 4.35716C12.0008 3.24893 11.5605 2.1861 10.7769 1.40246C9.99326 0.61883 8.93042 0.178589 7.8222 0.178589ZM5.03648 4.35716C5.03648 3.99133 5.10854 3.62909 5.24853 3.29111C5.38853 2.95314 5.59372 2.64604 5.8524 2.38736C6.11108 2.12869 6.41817 1.92349 6.75615 1.7835C7.09413 1.6435 7.45637 1.57145 7.8222 1.57145C8.18802 1.57145 8.55026 1.6435 8.88824 1.7835C9.22622 1.92349 9.53332 2.12869 9.79199 2.38736C10.0507 2.64604 10.2559 2.95314 10.3959 3.29111C10.5359 3.62909 10.6079 3.99133 10.6079 4.35716C10.6079 5.09598 10.3144 5.80454 9.79199 6.32696C9.26957 6.84938 8.56101 7.14287 7.8222 7.14287C7.08338 7.14287 6.37482 6.84938 5.8524 6.32696C5.32998 5.80454 5.03648 5.09598 5.03648 4.35716ZM17.5722 2.03573C16.7102 2.03573 15.8836 2.37814 15.2741 2.98763C14.6646 3.59713 14.3222 4.42378 14.3222 5.28573C14.3222 6.14769 14.6646 6.97434 15.2741 7.58383C15.8836 8.19332 16.7102 8.53573 17.5722 8.53573C18.4341 8.53573 19.2608 8.19332 19.8703 7.58383C20.4798 6.97434 20.8222 6.14769 20.8222 5.28573C20.8222 4.42378 20.4798 3.59713 19.8703 2.98763C19.2608 2.37814 18.4341 2.03573 17.5722 2.03573ZM15.7151 5.28573C15.7151 4.79319 15.9107 4.32082 16.259 3.97253C16.6073 3.62425 17.0797 3.42859 17.5722 3.42859C18.0647 3.42859 18.5371 3.62425 18.8854 3.97253C19.2337 4.32082 19.4293 4.79319 19.4293 5.28573C19.4293 5.77828 19.2337 6.25065 18.8854 6.59893C18.5371 6.94721 18.0647 7.14287 17.5722 7.14287C17.0797 7.14287 16.6073 6.94721 16.259 6.59893C15.9107 6.25065 15.7151 5.77828 15.7151 5.28573ZM0.85791 12.4822C0.85791 11.928 1.07803 11.3966 1.46985 11.0048C1.86166 10.613 2.39308 10.3929 2.9472 10.3929H12.6972C13.2513 10.3929 13.7827 10.613 14.1745 11.0048C14.5664 11.3966 14.7865 11.928 14.7865 12.4822V12.9752C14.7853 13.0504 14.78 13.1254 14.7707 13.1999C14.7498 13.3915 14.7156 13.5814 14.6686 13.7682C14.515 14.378 14.2413 14.951 13.8635 15.4536C12.9219 16.7099 11.1261 17.8214 7.8222 17.8214C4.51834 17.8214 2.72248 16.7099 1.78091 15.4536C1.4034 14.9509 1.13002 14.3779 0.976767 13.7682C0.916139 13.5255 0.877294 13.2778 0.860696 13.0282C0.859539 13.0105 0.85861 12.9929 0.85791 12.9752V12.9483V12.4822ZM2.25077 12.9418V12.9585L2.25912 13.0514C2.26841 13.1387 2.28698 13.2696 2.32784 13.4302C2.4361 13.8597 2.62864 14.2634 2.89427 14.6179C3.52012 15.4508 4.8582 16.4286 7.8222 16.4286C10.7862 16.4286 12.1243 15.4508 12.7492 14.6179C13.0742 14.1852 13.2358 13.7524 13.3156 13.4302C13.3546 13.2755 13.3804 13.1177 13.3927 12.9585L13.3936 12.9418V12.4822C13.3936 12.2975 13.3203 12.1203 13.1896 11.9897C13.059 11.8591 12.8819 11.7857 12.6972 11.7857H2.9472C2.76249 11.7857 2.58535 11.8591 2.45475 11.9897C2.32414 12.1203 2.25077 12.2975 2.25077 12.4822V12.9418ZM14.8793 15.6114C15.5971 15.8315 16.483 15.9643 17.5703 15.9643C20.1425 15.9643 21.5799 15.2252 22.3608 14.3337C22.6731 13.981 22.9045 13.5642 23.0387 13.1127C23.0917 12.9303 23.1256 12.743 23.1399 12.5537L23.1418 12.51V12.4822C23.1418 11.928 22.9216 11.3966 22.5298 11.0048C22.138 10.613 21.6066 10.3929 21.0525 10.3929H14.8738C15.2396 10.7745 15.5071 11.2527 15.6333 11.7857H21.0534C21.2365 11.7857 21.4123 11.8578 21.5426 11.9864C21.6729 12.115 21.7474 12.2898 21.7498 12.4729C21.7416 12.5572 21.7254 12.6405 21.7016 12.7217C21.6239 12.979 21.4907 13.2161 21.3116 13.4163C20.8742 13.9177 19.8751 14.5714 17.5703 14.5714C16.6966 14.5714 16.0103 14.4777 15.4708 14.3328C15.3277 14.782 15.129 15.2115 14.8793 15.6114Z" />
</svg>
