<svg width="20" height="20" viewBox="0 0 20 20" xmlns="http://www.w3.org/2000/svg">
<path d="M16 15.2499H17.125C17.6218 15.2484 18.0979 15.0504 18.4492 14.6991C18.8005 14.3478 18.9985 13.8717 19 13.3749V5.87488C18.9985 5.37805 18.8005 4.902 18.4492 4.55069C18.0979 4.19938 17.6218 4.00136 17.125 3.99988H2.875C2.37818 4.00136 1.90212 4.19938 1.55081 4.55069C1.1995 4.902 1.00148 5.37805 1 5.87488V13.3749C1.00148 13.8717 1.1995 14.3478 1.55081 14.6991C1.90212 15.0504 2.37818 15.2484 2.875 15.2499H4" stroke="currentColor" stroke-width="1.5" stroke-linejoin="round"/>
<path d="M14.8585 9.25024H5.13854C4.50893 9.25024 3.99854 9.76064 3.99854 10.3902V17.8602C3.99854 18.4898 4.50893 19.0002 5.13854 19.0002H14.8585C15.4881 19.0002 15.9985 18.4898 15.9985 17.8602V10.3902C15.9985 9.76064 15.4881 9.25024 14.8585 9.25024Z" stroke="currentColor" stroke-width="1.5" stroke-linejoin="round"/>
<path d="M15.9985 4.00012V2.87512C15.9971 2.3783 15.799 1.90225 15.4477 1.55094C15.0964 1.19963 14.6204 1.00161 14.1235 1.00012H5.87354C5.37671 1.00161 4.90066 1.19963 4.54935 1.55094C4.19804 1.90225 4.00002 2.3783 3.99854 2.87512V4.00012" stroke="currentColor" stroke-width="1.5" stroke-linejoin="round"/>
<path d="M16.7485 6.62512C16.7485 6.83223 16.5806 7.00012 16.3735 7.00012C16.1664 7.00012 15.9985 6.83223 15.9985 6.62512C15.9985 6.41802 16.1664 6.25012 16.3735 6.25012C16.5806 6.25012 16.7485 6.41802 16.7485 6.62512Z" fill="currentColor" stroke="currentColor" stroke-width="1.5"/>
</svg>
