<svg width="19" height="19" viewBox="0 0 19 19"  xmlns="http://www.w3.org/2000/svg">
<path d="M9.50051 17.9064C14.1952 17.9064 18.001 14.1218 18.001 9.45321C18.001 4.78463 14.1952 1 9.50051 1C4.80581 1 1 4.78463 1 9.45321C1 14.1218 4.80581 17.9064 9.50051 17.9064Z" stroke="currentColor" stroke-width="1.2" stroke-linecap="round" stroke-linejoin="round"/>
<path d="M1.65576 12.707H3.94436C4.55133 12.707 5.13345 12.4673 5.56264 12.0405C5.99184 11.6136 6.23296 11.0348 6.23296 10.4312V8.48043C6.23296 7.87684 6.47408 7.29796 6.90327 6.87115C7.33247 6.44435 7.91458 6.20457 8.52155 6.20457C9.12853 6.20457 9.71064 5.96479 10.1398 5.53798C10.569 5.11118 10.8102 4.5323 10.8102 3.9287V1.09363" stroke="currentColor" stroke-width="1.2" stroke-linecap="round" stroke-linejoin="round"/>
<path d="M17.9979 9.32061C17.3431 8.98275 16.617 8.80446 15.8793 8.80042H13.0938C12.4868 8.80042 11.9047 9.04019 11.4755 9.467C11.0463 9.89381 10.8052 10.4727 10.8052 11.0763C10.8052 11.6799 11.0463 12.2588 11.4755 12.6856C11.9047 13.1124 12.4868 13.3521 13.0938 13.3521C13.5273 13.3521 13.9431 13.5234 14.2497 13.8283C14.5563 14.1331 14.7285 14.5466 14.7285 14.9778V16.1092" stroke="currentColor" stroke-width="1.2" stroke-linecap="round" stroke-linejoin="round"/>
<path d="M8.9722 17.3759C9.11563 17.0542 9.13776 16.6644 8.9719 16.3191C8.80604 15.9738 8.62263 15.4804 8.24464 15.3137C7.86664 15.147 7.44715 15.115 7.07845 15.2246C6.70975 15.3342 6.42203 15.5764 6.2786 15.8981C6.17615 16.1279 5.97064 16.3009 5.70728 16.3792C5.44392 16.4575 5.14429 16.4346 4.87429 16.3156L4.16575 16.0031" stroke="currentColor" stroke-width="1.2" stroke-linecap="round" stroke-linejoin="round"/>
</svg>
